<?xml version="1.0" encoding="UTF-8" standalone="no"?>
<!-- Created with Inkscape (http://www.inkscape.org/) -->

<svg
   width="171.32137mm"
   height="54.88731mm"
   viewBox="0 0 171.32137 54.887311"
   version="1.1"
   id="svg5"
   inkscape:version="1.1.1 (3bf5ae0d25, 2021-09-20)"
   sodipodi:docname="logo-mayo-fleche-seule.svg"
   xmlns:inkscape="http://www.inkscape.org/namespaces/inkscape"
   xmlns:sodipodi="http://sodipodi.sourceforge.net/DTD/sodipodi-0.dtd"
   xmlns="http://www.w3.org/2000/svg"
   xmlns:svg="http://www.w3.org/2000/svg">
  <sodipodi:namedview
     id="namedview7"
     pagecolor="#ffffff"
     bordercolor="#666666"
     borderopacity="1.0"
     inkscape:pageshadow="2"
     inkscape:pageopacity="0.0"
     inkscape:pagecheckerboard="0"
     inkscape:document-units="mm"
     showgrid="false"
     showguides="true"
     inkscape:guide-bbox="true"
     inkscape:zoom="0.25"
     inkscape:cx="48"
     inkscape:cy="-586"
     inkscape:window-width="1920"
     inkscape:window-height="1043"
     inkscape:window-x="0"
     inkscape:window-y="0"
     inkscape:window-maximized="1"
     inkscape:current-layer="layer1"
     fit-margin-top="0"
     fit-margin-left="0"
     fit-margin-right="0"
     fit-margin-bottom="0" />
  <defs
     id="defs2">
    <inkscape:path-effect
       effect="powerstroke"
       id="path-effect103108"
       is_visible="true"
       lpeversion="1"
       offset_points="0,4.99214"
       not_jump="false"
       sort_points="true"
       interpolator_type="CubicBezierJohan"
       interpolator_beta="0.2"
       start_linecap_type="zerowidth"
       linejoin_type="extrp_arc"
       miter_limit="4"
       scale_width="1"
       end_linecap_type="zerowidth" />
    <inkscape:path-effect
       effect="skeletal"
       id="path-effect102911"
       is_visible="true"
       lpeversion="1"
       pattern="m -53.576121,64.362489 c 22.902946,-1.394839 45.86816,-0.647426 68.774426,-0.05589 5.58992,-3.304861 -3.768126,-5.747825 -6.354336,-7.147107 -3.36164,-2.031565 -10.76683,-4.165441 -11.44132,-6.987135 9.4567,3.44968 18.898846,5.264091 26.923706,11.828508 4.0114,3.096137 -6.77216,7.511611 -11.010666,8.810036 -5.97057,2.358444 -16.12089,4.718254 -21.02486,8.938214"
       copytype="single_stretched"
       prop_scale="1"
       scale_y_rel="false"
       spacing="0"
       normal_offset="0"
       tang_offset="0"
       prop_units="false"
       vertical_pattern="false"
       hide_knot="false"
       fuse_tolerance="0" />
    <rect
       x="170.54477"
       y="217.66174"
       width="89.230515"
       height="42.286194"
       id="rect37544" />
    <filter
       inkscape:label="Ridged Border"
       inkscape:menu="Bevels"
       inkscape:menu-tooltip="Ridged border with inner bevel"
       style="color-interpolation-filters:sRGB"
       id="filter5609"
       x="-0.16580088"
       y="-0.18833993"
       width="1.3316019"
       height="1.3766799">
      <feMorphology
         radius="4.3"
         in="SourceAlpha"
         result="result91"
         id="feMorphology5595" />
      <feComposite
         operator="out"
         in="SourceGraphic"
         in2="result91"
         id="feComposite5597" />
      <feGaussianBlur
         result="result0"
         stdDeviation="1.2"
         id="feGaussianBlur5599" />
      <feDiffuseLighting
         diffuseConstant="1"
         id="feDiffuseLighting5603">
        <feDistantLight
           elevation="66"
           azimuth="225"
           id="feDistantLight5601" />
      </feDiffuseLighting>
      <feBlend
         mode="multiply"
         in2="SourceGraphic"
         id="feBlend5605" />
      <feComposite
         operator="in"
         in2="SourceAlpha"
         id="feComposite5607" />
    </filter>
    <filter
       inkscape:label="Ridged Border"
       inkscape:menu="Bevels"
       inkscape:menu-tooltip="Ridged border with inner bevel"
       style="color-interpolation-filters:sRGB"
       id="filter5625"
       x="-0.26728147"
       y="-0.18157679"
       width="1.5345629"
       height="1.3631536">
      <feMorphology
         radius="4.3"
         in="SourceAlpha"
         result="result91"
         id="feMorphology5611" />
      <feComposite
         operator="out"
         in="SourceGraphic"
         in2="result91"
         id="feComposite5613" />
      <feGaussianBlur
         result="result0"
         stdDeviation="1.2"
         id="feGaussianBlur5615" />
      <feDiffuseLighting
         diffuseConstant="1"
         id="feDiffuseLighting5619">
        <feDistantLight
           elevation="66"
           azimuth="225"
           id="feDistantLight5617" />
      </feDiffuseLighting>
      <feBlend
         mode="multiply"
         in2="SourceGraphic"
         id="feBlend5621" />
      <feComposite
         operator="in"
         in2="SourceAlpha"
         id="feComposite5623" />
    </filter>
    <filter
       inkscape:label="Ridged Border"
       inkscape:menu="Bevels"
       inkscape:menu-tooltip="Ridged border with inner bevel"
       style="color-interpolation-filters:sRGB"
       id="filter5641"
       x="-0.15317404"
       y="-0.48703215"
       width="1.3063481"
       height="1.9740644">
      <feMorphology
         radius="4.3"
         in="SourceAlpha"
         result="result91"
         id="feMorphology5627" />
      <feComposite
         operator="out"
         in="SourceGraphic"
         in2="result91"
         id="feComposite5629" />
      <feGaussianBlur
         result="result0"
         stdDeviation="1.2"
         id="feGaussianBlur5631" />
      <feDiffuseLighting
         diffuseConstant="1"
         id="feDiffuseLighting5635">
        <feDistantLight
           elevation="66"
           azimuth="225"
           id="feDistantLight5633" />
      </feDiffuseLighting>
      <feBlend
         mode="multiply"
         in2="SourceGraphic"
         id="feBlend5637" />
      <feComposite
         operator="in"
         in2="SourceAlpha"
         id="feComposite5639" />
    </filter>
    <filter
       inkscape:label="Ridged Border"
       inkscape:menu="Bevels"
       inkscape:menu-tooltip="Ridged border with inner bevel"
       style="color-interpolation-filters:sRGB"
       id="filter5657"
       x="-0.044624873"
       y="-0.28084883"
       width="1.0892497"
       height="1.5616977">
      <feMorphology
         radius="10.984759029479847"
         in="SourceAlpha"
         result="result91"
         id="feMorphology5643"
         operator="erode" />
      <feComposite
         operator="out"
         in="SourceGraphic"
         in2="result91"
         id="feComposite5645" />
      <feGaussianBlur
         result="result0"
         stdDeviation="1.2"
         id="feGaussianBlur5647" />
      <feDiffuseLighting
         diffuseConstant="1"
         id="feDiffuseLighting5651">
        <feDistantLight
           elevation="66"
           azimuth="225"
           id="feDistantLight5649" />
      </feDiffuseLighting>
      <feBlend
         mode="multiply"
         in2="SourceGraphic"
         id="feBlend5653" />
      <feComposite
         operator="in"
         in2="SourceAlpha"
         id="feComposite5655" />
    </filter>
    <filter
       inkscape:label="Ridged Border"
       inkscape:menu="Bevels"
       inkscape:menu-tooltip="Ridged border with inner bevel"
       style="color-interpolation-filters:sRGB"
       id="filter5673"
       x="-2.0294251"
       y="-1.8777493"
       width="5.0588503"
       height="4.7554989">
      <feMorphology
         radius="4.3"
         in="SourceAlpha"
         result="result91"
         id="feMorphology5659" />
      <feComposite
         operator="out"
         in="SourceGraphic"
         in2="result91"
         id="feComposite5661" />
      <feGaussianBlur
         result="result0"
         stdDeviation="1.2"
         id="feGaussianBlur5663" />
      <feDiffuseLighting
         diffuseConstant="1"
         id="feDiffuseLighting5667">
        <feDistantLight
           elevation="66"
           azimuth="225"
           id="feDistantLight5665" />
      </feDiffuseLighting>
      <feBlend
         mode="multiply"
         in2="SourceGraphic"
         id="feBlend5669" />
      <feComposite
         operator="in"
         in2="SourceAlpha"
         id="feComposite5671" />
    </filter>
    <rect
       x="170.54477"
       y="217.66174"
       width="89.230515"
       height="42.286194"
       id="rect37544-2" />
    <rect
       x="170.54477"
       y="217.66174"
       width="89.230515"
       height="42.286194"
       id="rect37544-1" />
    <rect
       x="170.54477"
       y="217.66174"
       width="89.230515"
       height="42.286194"
       id="rect37544-2-0" />
    <rect
       x="170.54477"
       y="217.66174"
       width="89.230515"
       height="42.286194"
       id="rect37544-8" />
    <rect
       x="170.54477"
       y="217.66174"
       width="89.230515"
       height="42.286194"
       id="rect37544-2-9" />
    <rect
       x="170.54477"
       y="217.66174"
       width="89.230515"
       height="42.286194"
       id="rect37544-8-7" />
    <rect
       x="170.54477"
       y="217.66174"
       width="89.230515"
       height="42.286194"
       id="rect37544-2-9-0" />
  </defs>
  <g
     inkscape:label="Calque 1"
     inkscape:groupmode="layer"
     id="layer1"
     transform="translate(-30.185732,-211.33127)">
    <g
       id="g123113"
       transform="translate(20.117306,-33.190411)"
       style="fill:#000000">
      <path
         id="path117290"
         style="fill:#000000;stroke:none;stroke-width:0.999999px;stroke-linecap:butt;stroke-linejoin:miter;stroke-opacity:1"
         d="m 504.82812,754.62109 -2.14062,0.51563 -14.49023,16.83789 -0.42188,1.60937 8.79297,43.23243 c 0.52881,0.0481 1.066,0.0913 1.57617,0.1289 0.89966,0.0663 1.72945,0.1193 2.33789,0.1543 l -8.8164,-43.35938 12.92773,-15.02734 12.8457,63.19727 -386.98047,-23.95508 -20.12695,-3.13281 -1.72656,0.63476 -14.484376,16.83789 -0.06641,2.38477 c 0,0 0.590178,0.68029 1.46289,3.46875 0.872708,2.78846 1.878,7.48955 2.25,14.89648 0.716315,14.2627 -1.003188,38.72771 -10.324219,78.70508 0.157257,0.0266 0.31316,0.0554 0.466797,0.084 1.378942,0.25649 2.598153,0.58631 3.181641,0.75391 9.341537,-40.10668 11.189467,-64.99513 10.449227,-79.73437 -0.38506,-7.66693 -1.43495,-12.68058 -2.421883,-15.83399 -0.663538,-2.12012 -0.994589,-2.45362 -1.386719,-3.12305 l 13.058602,-15.17773 0.30273,0.0469 c 2.69792,6.5863 8.53321,30.99593 -8.35937,101.13086 C 99.381261,913.818 515.32812,880.4707 515.32812,880.4707 l -14.76562,62.96875 228.3418,-89.55273 c -0.14367,0.34551 -0.20833,0.6308 -0.41211,1.00976 -0.92686,1.72354 -2.37135,3.70837 -3.97852,5.5879 -1.6072,1.87948 -3.38569,3.66918 -4.96875,5.04882 -1.58302,1.37961 -3.07772,2.35509 -3.60156,2.56055 l -223.75,87.75195 0.0156,0.043 c 0,0 -1.28592,0.48115 -3.21679,1.21094 l -0.25586,0.10156 v -0.004 c -1.22048,0.46152 -2.68301,1.0161 -4.25391,1.61523 l -0.24219,1.03125 c 0.54312,2.10259 2.00871,2.33067 2.52344,2.19336 l 230.55274,-90.42188 c 1.48168,-0.5811 2.97496,-1.71441 4.71679,-3.23242 1.7418,-1.51801 3.6199,-3.4163 5.35157,-5.4414 1.73166,-2.02511 3.3148,-4.16789 4.43554,-6.25196 0.93117,-1.7315 1.59441,-3.43047 1.55078,-5.17187 9.95302,-12.9726 -133.74665,-63.11334 -198.0039,-84.74414 -10.21657,-4.02428 -20.45698,-8.05702 -30.53907,-12.15235 z m -4.13476,140.80079 c 0,0 -1.14114,0.0891 -1.19922,0.0937 -0.11339,0.42208 -0.22815,0.84455 -0.3457,1.27344 -0.2469,0.90079 -0.50053,1.80788 -0.75782,2.69336 L 485.52148,954.375 c 1.77874,-0.67478 3.31842,-1.25553 4.25391,-1.60742 l 12.9043,-55.02735 c 0.24567,-0.77075 -1.22083,-2.26677 -1.98633,-2.31835 z m -5.20117,0.41015 c -13.523,1.07608 -106.31481,8.40863 -202.32422,14.52344 -51.7734,3.29745 -103.44462,6.1571 -141.92578,7.32422 -19.24058,0.58359 -35.19296,0.74159 -46.15821,0.32422 -5.482608,-0.20863 -9.732173,-0.56859 -12.416011,-1.05664 -1.20567,-0.21922 -1.968366,-0.47407 -2.414063,-0.66407 3.11e-4,-10e-4 -3.11e-4,-0.003 0,-0.004 -0.336522,-0.10003 -1.608726,-0.46682 -3.037109,-0.73242 -0.203819,-0.0379 -0.409421,-0.0737 -0.615235,-0.10547 -0.07092,0.29622 -0.121611,0.55172 -0.193359,0.84961 -0.180057,0.74755 0.06995,1.66338 0.486328,2.20703 0.416372,0.54364 0.89781,0.84185 1.396485,1.09179 0.997353,0.49992 2.17689,0.80166 3.697265,1.07813 3.040747,0.55294 7.385064,0.90332 12.955079,1.11523 11.14002,0.42388 27.13508,0.26048 46.41797,-0.32422 38.56578,-1.16968 90.2547,-4.03134 142.04883,-7.33007 96.7961,-6.1649 188.89469,-13.46805 200.97461,-14.43164 0.36997,-1.22578 0.74655,-2.54941 1.10742,-3.86524 z"
         transform="matrix(0.26458333,0,0,0.26458333,-12.778074,44.861543)" />
    </g>
  </g>
</svg>
