<?xml version="1.0" encoding="UTF-8" standalone="no"?>
<!-- Created with Inkscape (http://www.inkscape.org/) -->

<svg
   width="88.662109mm"
   height="37.927055mm"
   viewBox="0 0 88.662109 37.927056"
   version="1.1"
   id="svg5"
   inkscape:version="1.1.1 (3bf5ae0d25, 2021-09-20)"
   sodipodi:docname="logo-mayo-tube-seul.svg"
   xmlns:inkscape="http://www.inkscape.org/namespaces/inkscape"
   xmlns:sodipodi="http://sodipodi.sourceforge.net/DTD/sodipodi-0.dtd"
   xmlns="http://www.w3.org/2000/svg"
   xmlns:svg="http://www.w3.org/2000/svg">
  <sodipodi:namedview
     id="namedview7"
     pagecolor="#ffffff"
     bordercolor="#666666"
     borderopacity="1.0"
     inkscape:pageshadow="2"
     inkscape:pageopacity="0.0"
     inkscape:pagecheckerboard="0"
     inkscape:document-units="mm"
     showgrid="false"
     showguides="true"
     inkscape:guide-bbox="true"
     inkscape:zoom="0.70710678"
     inkscape:cx="622.25397"
     inkscape:cy="579.12045"
     inkscape:window-width="1920"
     inkscape:window-height="1043"
     inkscape:window-x="0"
     inkscape:window-y="0"
     inkscape:window-maximized="1"
     inkscape:current-layer="layer1"
     fit-margin-top="0"
     fit-margin-left="0"
     fit-margin-right="0"
     fit-margin-bottom="0" />
  <defs
     id="defs2">
    <inkscape:path-effect
       effect="powerstroke"
       id="path-effect103108"
       is_visible="true"
       lpeversion="1"
       offset_points="0,4.99214"
       not_jump="false"
       sort_points="true"
       interpolator_type="CubicBezierJohan"
       interpolator_beta="0.2"
       start_linecap_type="zerowidth"
       linejoin_type="extrp_arc"
       miter_limit="4"
       scale_width="1"
       end_linecap_type="zerowidth" />
    <inkscape:path-effect
       effect="skeletal"
       id="path-effect102911"
       is_visible="true"
       lpeversion="1"
       pattern="m -53.576121,64.362489 c 22.902946,-1.394839 45.86816,-0.647426 68.774426,-0.05589 5.58992,-3.304861 -3.768126,-5.747825 -6.354336,-7.147107 -3.36164,-2.031565 -10.76683,-4.165441 -11.44132,-6.987135 9.4567,3.44968 18.898846,5.264091 26.923706,11.828508 4.0114,3.096137 -6.77216,7.511611 -11.010666,8.810036 -5.97057,2.358444 -16.12089,4.718254 -21.02486,8.938214"
       copytype="single_stretched"
       prop_scale="1"
       scale_y_rel="false"
       spacing="0"
       normal_offset="0"
       tang_offset="0"
       prop_units="false"
       vertical_pattern="false"
       hide_knot="false"
       fuse_tolerance="0" />
    <rect
       x="170.54477"
       y="217.66174"
       width="89.230515"
       height="42.286194"
       id="rect37544" />
    <filter
       inkscape:label="Ridged Border"
       inkscape:menu="Bevels"
       inkscape:menu-tooltip="Ridged border with inner bevel"
       style="color-interpolation-filters:sRGB"
       id="filter5609"
       x="-0.16580088"
       y="-0.18833993"
       width="1.3316019"
       height="1.3766799">
      <feMorphology
         radius="4.3"
         in="SourceAlpha"
         result="result91"
         id="feMorphology5595" />
      <feComposite
         operator="out"
         in="SourceGraphic"
         in2="result91"
         id="feComposite5597" />
      <feGaussianBlur
         result="result0"
         stdDeviation="1.2"
         id="feGaussianBlur5599" />
      <feDiffuseLighting
         diffuseConstant="1"
         id="feDiffuseLighting5603">
        <feDistantLight
           elevation="66"
           azimuth="225"
           id="feDistantLight5601" />
      </feDiffuseLighting>
      <feBlend
         mode="multiply"
         in2="SourceGraphic"
         id="feBlend5605" />
      <feComposite
         operator="in"
         in2="SourceAlpha"
         id="feComposite5607" />
    </filter>
    <filter
       inkscape:label="Ridged Border"
       inkscape:menu="Bevels"
       inkscape:menu-tooltip="Ridged border with inner bevel"
       style="color-interpolation-filters:sRGB"
       id="filter5625"
       x="-0.26728147"
       y="-0.18157679"
       width="1.5345629"
       height="1.3631536">
      <feMorphology
         radius="4.3"
         in="SourceAlpha"
         result="result91"
         id="feMorphology5611" />
      <feComposite
         operator="out"
         in="SourceGraphic"
         in2="result91"
         id="feComposite5613" />
      <feGaussianBlur
         result="result0"
         stdDeviation="1.2"
         id="feGaussianBlur5615" />
      <feDiffuseLighting
         diffuseConstant="1"
         id="feDiffuseLighting5619">
        <feDistantLight
           elevation="66"
           azimuth="225"
           id="feDistantLight5617" />
      </feDiffuseLighting>
      <feBlend
         mode="multiply"
         in2="SourceGraphic"
         id="feBlend5621" />
      <feComposite
         operator="in"
         in2="SourceAlpha"
         id="feComposite5623" />
    </filter>
    <filter
       inkscape:label="Ridged Border"
       inkscape:menu="Bevels"
       inkscape:menu-tooltip="Ridged border with inner bevel"
       style="color-interpolation-filters:sRGB"
       id="filter5641"
       x="-0.15317404"
       y="-0.48703215"
       width="1.3063481"
       height="1.9740644">
      <feMorphology
         radius="4.3"
         in="SourceAlpha"
         result="result91"
         id="feMorphology5627" />
      <feComposite
         operator="out"
         in="SourceGraphic"
         in2="result91"
         id="feComposite5629" />
      <feGaussianBlur
         result="result0"
         stdDeviation="1.2"
         id="feGaussianBlur5631" />
      <feDiffuseLighting
         diffuseConstant="1"
         id="feDiffuseLighting5635">
        <feDistantLight
           elevation="66"
           azimuth="225"
           id="feDistantLight5633" />
      </feDiffuseLighting>
      <feBlend
         mode="multiply"
         in2="SourceGraphic"
         id="feBlend5637" />
      <feComposite
         operator="in"
         in2="SourceAlpha"
         id="feComposite5639" />
    </filter>
    <filter
       inkscape:label="Ridged Border"
       inkscape:menu="Bevels"
       inkscape:menu-tooltip="Ridged border with inner bevel"
       style="color-interpolation-filters:sRGB"
       id="filter5657"
       x="-0.044624873"
       y="-0.28084883"
       width="1.0892497"
       height="1.5616977">
      <feMorphology
         radius="10.984759029479847"
         in="SourceAlpha"
         result="result91"
         id="feMorphology5643"
         operator="erode" />
      <feComposite
         operator="out"
         in="SourceGraphic"
         in2="result91"
         id="feComposite5645" />
      <feGaussianBlur
         result="result0"
         stdDeviation="1.2"
         id="feGaussianBlur5647" />
      <feDiffuseLighting
         diffuseConstant="1"
         id="feDiffuseLighting5651">
        <feDistantLight
           elevation="66"
           azimuth="225"
           id="feDistantLight5649" />
      </feDiffuseLighting>
      <feBlend
         mode="multiply"
         in2="SourceGraphic"
         id="feBlend5653" />
      <feComposite
         operator="in"
         in2="SourceAlpha"
         id="feComposite5655" />
    </filter>
    <filter
       inkscape:label="Ridged Border"
       inkscape:menu="Bevels"
       inkscape:menu-tooltip="Ridged border with inner bevel"
       style="color-interpolation-filters:sRGB"
       id="filter5673"
       x="-2.0294251"
       y="-1.8777493"
       width="5.0588503"
       height="4.7554989">
      <feMorphology
         radius="4.3"
         in="SourceAlpha"
         result="result91"
         id="feMorphology5659" />
      <feComposite
         operator="out"
         in="SourceGraphic"
         in2="result91"
         id="feComposite5661" />
      <feGaussianBlur
         result="result0"
         stdDeviation="1.2"
         id="feGaussianBlur5663" />
      <feDiffuseLighting
         diffuseConstant="1"
         id="feDiffuseLighting5667">
        <feDistantLight
           elevation="66"
           azimuth="225"
           id="feDistantLight5665" />
      </feDiffuseLighting>
      <feBlend
         mode="multiply"
         in2="SourceGraphic"
         id="feBlend5669" />
      <feComposite
         operator="in"
         in2="SourceAlpha"
         id="feComposite5671" />
    </filter>
    <rect
       x="170.54477"
       y="217.66174"
       width="89.230515"
       height="42.286194"
       id="rect37544-2" />
    <rect
       x="170.54477"
       y="217.66174"
       width="89.230515"
       height="42.286194"
       id="rect37544-1" />
    <rect
       x="170.54477"
       y="217.66174"
       width="89.230515"
       height="42.286194"
       id="rect37544-2-0" />
    <rect
       x="170.54477"
       y="217.66174"
       width="89.230515"
       height="42.286194"
       id="rect37544-8" />
    <rect
       x="170.54477"
       y="217.66174"
       width="89.230515"
       height="42.286194"
       id="rect37544-2-9" />
    <rect
       x="170.54477"
       y="217.66174"
       width="89.230515"
       height="42.286194"
       id="rect37544-8-7" />
    <rect
       x="170.54477"
       y="217.66174"
       width="89.230515"
       height="42.286194"
       id="rect37544-2-9-0" />
  </defs>
  <g
     inkscape:label="Calque 1"
     inkscape:groupmode="layer"
     id="layer1"
     transform="translate(-85.363866,-104.81724)">
    <g
       id="path125005">
      <path
         style="color:#000000;fill:#00ffff;-inkscape-stroke:none"
         d="m 112.8947,158.52515 3.78843,0.56271"
         id="path132389" />
    </g>
    <g
       id="g119955"
       transform="translate(3.525794,-43.815937)"
       style="fill:#000000">
      <g
         id="path24588-4-6"
         transform="scale(0.26458333)"
         style="fill:#000000">
        <path
           id="path119282"
           style="color:#000000;fill:#000000;stroke-width:2.1683px;-inkscape-stroke:none"
           d="m 349.65234,-308.88477 c -5.1673,-0.0498 -10.43046,3.48758 -14.98828,8.88672 -0.51394,0.60881 -1.01562,1.26388 -1.51562,1.92383 l 4.21289,0.625 c 0.0708,-0.0854 0.13997,-0.18351 0.21094,-0.26758 4.12921,-4.89138 8.33146,-7.41758 11.82421,-7.42968 0.49895,-0.002 0.98352,0.0471 1.45118,0.14843 3.74131,0.81068 6.69741,4.99719 7.95703,11.88282 1.25961,6.88567 0.72954,16.14574 -1.98242,25.92578 -2.71198,9.78008 -7.08559,18.19893 -11.80469,23.78906 -4.71912,5.59018 -9.52822,8.09388 -13.26953,7.2832 -3.74128,-0.81067 -6.70329,-4.99715 -7.96289,-11.88281 -0.5022,-2.74529 -0.70566,-5.87863 -0.61328,-9.25977 l 10.35937,2.34766 c 21.3552,-16.98259 7.56641,-38.24805 7.56641,-38.24805 l -31.71289,-4.57422 c -0.61362,-0.0359 -1.23816,-0.0184 -1.65235,-0.0469 -2.49985,0.0145 -4.92587,1.26083 -6.96094,3.17578 l 3.58204,1.86719 -0.0352,0.0684 c 1.18339,-0.8853 2.33655,-1.3226 3.39453,-1.33399 0.34004,-0.004 0.66995,0.036 0.98828,0.11719 1.69778,0.43294 3.21118,2.11976 4.08399,5.02734 0.8728,2.90759 0.98723,6.85573 0.0215,10.95508 -0.96595,4.09935 -2.82025,7.53391 -4.87305,9.67774 -2.05279,2.14386 -4.08935,2.89778 -5.78711,2.46484 -1.69776,-0.43295 -3.20925,-2.11974 -4.08203,-5.02734 -0.16668,-0.5553 -0.30525,-1.14919 -0.41392,-1.77484 -0.0543,-0.31283 -0.13301,-0.63134 -0.14035,-0.96145 -0.15251,-6.86188 -0.12044,-7.41104 1.56354,-13.51704 0.73035,-2.10929 1.77787,-3.26035 1.77787,-3.26035 -0.58393,-0.31999 -1.19621,-0.63224 -1.90234,-0.99024 l -0.69336,-0.36133 c -0.004,0.006 -0.008,0.0118 -0.0117,0.0176 0,0 -0.72884,-0.9387 -2.13283,1.79602 -1.55999,4.89027 -2.28788,9.49806 -2.52537,13.54578 -0.0231,2.36604 0.26407,4.60217 0.86133,6.5918 1.10945,3.69595 3.36627,6.73766 6.76171,7.60351 0.5351,0.13646 1.07062,0.21036 1.60352,0.22852 l 16.5625,3.75195 c -0.16635,3.95596 0.0364,7.66068 0.63867,10.95312 1.39034,7.60039 4.86922,13.42069 10.72461,14.68946 0.39195,0.0849 0.78564,0.14667 1.17969,0.1875 2.97966,0.76797 67.03849,17.27441 133.95898,33.96679 34.24366,8.54161 68.75826,17.00814 95.25977,23.19336 13.25075,3.09261 24.49673,5.61391 32.71484,7.29102 4.10906,0.83856 7.45899,1.46627 9.93946,1.84961 1.24025,0.19166 2.26107,0.32333 3.06836,0.38867 0.80729,0.0653 1.32697,0.114 1.93359,-0.0527 0.96114,-0.26435 1.62677,-0.98113 2.24805,-1.89454 0.62131,-0.91339 1.19678,-2.08869 1.76953,-3.51367 1.14548,-2.84995 2.26386,-6.69842 3.36328,-11.23828 2.19884,-9.07972 4.30303,-20.90596 6.13867,-32.65625 3.67128,-23.50058 6.25976,-46.68945 6.25977,-46.68945 l 0.11328,-1.02344 -275.19922,-45.48047 c -0.52067,-0.20452 -1.06431,-0.36985 -1.62891,-0.49218 -0.73192,-0.15859 -1.46689,-0.23703 -2.20508,-0.24415 z"
           transform="translate(15.724573,870.64848)"
           sodipodi:nodetypes="ssccscsssssscccccccccsscssssscccccccssccsscssssscsssscccsss" />
      </g>
    </g>
    <ellipse
       style="fill:#000000;stroke:none;stroke-width:0.300005;stroke-linejoin:round;stop-color:#000000"
       id="path4575"
       cx="111.17522"
       cy="90.798927"
       rx="1.281961"
       ry="2.8616529"
       transform="matrix(0.97672357,0.21450192,-0.22223267,0.97499366,0,0)" />
  </g>
</svg>
